<svg width="853" height="1010" viewBox="0 0 853 1010" fill="none" xmlns="http://www.w3.org/2000/svg">
    <path fill-rule="evenodd" clip-rule="evenodd"
          d="M-44.7564 78.5674C-42.724 78.3376 -40.8286 79.255 -39.7067 80.7998L22.9233 43.5786C22.6038 42.9811 22.3862 42.3165 22.3076 41.6025C21.97 38.5879 24.138 35.8666 27.1488 35.5262C30.1595 35.1859 32.8729 37.354 33.2105 40.3686C33.2183 40.4468 33.2188 40.5231 33.2242 40.6007L111.368 43.779C111.91 41.6195 113.734 39.9166 116.072 39.653C119.083 39.3127 121.796 41.4808 122.134 44.4954C122.392 46.788 121.198 48.9066 119.288 49.9409L130.186 83.7721L150.797 147.773C150.819 147.769 150.839 147.763 150.86 147.761C153.871 147.421 156.587 149.59 156.924 152.604C157.262 155.619 155.095 158.338 152.084 158.678C151.138 158.784 150.222 158.644 149.397 158.307L110.53 236.655C111.87 237.515 112.821 238.952 113.014 240.66C113.269 242.925 112.103 245.025 110.232 246.072L159.197 363.644C159.495 363.559 159.802 363.489 160.119 363.453C163.129 363.112 165.845 365.281 166.18 368.295C166.338 369.692 165.952 371.024 165.199 372.085L217.826 417.355C218.665 416.54 219.768 415.983 221.022 415.841C224.033 415.501 226.747 417.669 227.084 420.683C227.249 422.161 226.81 423.563 225.971 424.653L308.871 502C309.691 501.267 310.734 500.77 311.907 500.638C314.917 500.297 317.631 502.465 317.968 505.48C318.306 508.495 316.139 511.214 313.128 511.554C311.874 511.696 310.675 511.398 309.672 510.788L264.95 571.179C265.918 572.045 266.587 573.256 266.743 574.65C267.044 577.358 265.325 579.824 262.789 580.544L295.662 757.222L295.166 757.315C297.128 757.095 298.956 757.939 300.091 759.388L359.456 721.087C359.154 720.502 358.947 719.859 358.867 719.168C358.532 716.154 360.697 713.432 363.708 713.092C366.719 712.751 369.435 714.92 369.772 717.935C369.978 719.78 369.243 721.512 367.953 722.66L458.087 845.927C458.704 845.58 459.401 845.349 460.146 845.266C462.446 845.005 464.569 846.209 465.596 848.136L524.503 821.671C524.424 821.39 524.362 821.101 524.328 820.8C523.99 817.785 526.157 815.067 529.168 814.726C532.179 814.386 534.892 816.554 535.23 819.569C535.418 821.252 534.825 822.841 533.741 823.979L646.056 969.221C646.739 968.785 647.526 968.489 648.385 968.391C651.396 968.051 654.11 970.219 654.447 973.234C654.785 976.248 652.617 978.967 649.607 979.307C647.166 979.585 644.921 978.212 643.978 976.075L525.108 1016.1C525.157 1016.31 525.196 1016.52 525.221 1016.74C525.558 1019.76 523.391 1022.48 520.382 1022.82C517.372 1023.16 514.656 1020.99 514.318 1017.98C514.081 1015.86 515.083 1013.89 516.742 1012.78L476.539 937.814C476.063 938.015 475.552 938.153 475.013 938.216C472.935 938.45 471.001 937.49 469.89 935.885L421.163 963.395C421.356 963.861 421.49 964.356 421.548 964.884C421.886 967.898 419.721 970.618 416.71 970.958C413.721 971.297 411.027 969.163 410.657 966.181L336.07 965.807C335.926 968.438 333.91 970.661 331.21 970.967C330.386 971.059 329.589 970.961 328.852 970.71L299.341 1037.46C300.832 1038.29 301.915 1039.8 302.122 1041.63C302.457 1044.65 300.291 1047.37 297.28 1047.71C294.27 1048.05 291.554 1045.88 291.216 1042.87C291.139 1042.17 291.201 1041.49 291.37 1040.85L229.668 1018.21C228.879 1019.86 227.284 1021.09 225.331 1021.31C223.874 1021.47 222.489 1021.05 221.407 1020.23L159.067 1088.43C159.816 1089.26 160.325 1090.31 160.458 1091.51C160.796 1094.52 158.631 1097.24 155.62 1097.58C152.609 1097.92 149.894 1095.75 149.556 1092.74C149.342 1090.84 150.13 1089.05 151.495 1087.91L76.0287 978.179C75.4086 978.527 74.7094 978.76 73.9606 978.845C73.8099 978.86 73.6611 978.868 73.5131 978.873L18.4773 1034.88C19.1531 1035.68 19.61 1036.68 19.7344 1037.8C20.0719 1040.82 17.904 1043.54 14.8939 1043.88C11.8831 1044.22 9.16905 1042.05 8.83153 1039.04C8.49401 1036.02 10.662 1033.3 13.6728 1032.96C13.8536 1032.94 14.0374 1032.93 14.2162 1032.93L28.1951 858.732L27.8249 858.617L28.2419 858.156L28.4039 856.124L28.9078 857.421L98.1276 781.054C97.3692 780.226 96.8544 779.164 96.7172 777.964C96.4506 775.575 97.7578 773.376 99.8081 772.395L71.675 695.934C71.4153 696.004 71.1509 696.062 70.8752 696.093C67.8645 696.433 65.1511 694.265 64.8136 691.25C64.4972 688.43 66.3763 685.868 69.0831 685.273L-67.9672 511.298C-68.6591 511.748 -69.4614 512.052 -70.337 512.151C-73.3478 512.491 -76.0612 510.323 -76.3987 507.309C-76.7363 504.294 -74.5689 501.575 -71.5581 501.235C-70.3367 501.098 -69.1692 501.376 -68.1836 501.953L38.4113 352.775C37.405 351.904 36.7083 350.67 36.5486 349.242C36.4012 347.924 36.7318 346.661 37.4036 345.63L-23.3309 297.5C-24.1908 298.401 -25.3547 299.019 -26.6868 299.168C-29.6976 299.509 -32.411 297.341 -32.7485 294.326C-32.9936 292.15 -31.9266 290.134 -30.1865 289.049L-61.6625 225.856C-62.0928 226.024 -62.5494 226.143 -63.0305 226.198C-66.0413 226.538 -68.7578 224.372 -69.0953 221.357C-69.4328 218.343 -67.2648 215.622 -64.2541 215.281C-63.9569 215.248 -63.6627 215.245 -63.373 215.26L-45.4167 89.3653C-47.602 88.8454 -49.3317 87.0065 -49.5969 84.6412C-49.9344 81.6266 -47.7671 78.9078 -44.7564 78.5674ZM72.0156 79.6512L148.389 148.682C148.819 148.388 149.291 148.152 149.801 147.989L130.708 88.6999L118.353 50.3412C118.014 50.4501 117.66 50.5285 117.296 50.5698C115.393 50.7845 113.615 49.9983 112.474 48.6321L72.0156 79.6512ZM216.657 423.612L132.05 453.808C132.111 454.05 132.164 454.295 132.192 454.549C132.251 455.085 132.229 455.614 132.138 456.12L202.748 475.476L219.399 426.312C218.203 425.777 217.219 424.823 216.657 423.612ZM203.4 476.708L176.861 555.068C178.007 555.582 178.954 556.479 179.526 557.619L307.249 507.614C307.167 507.324 307.101 507.023 307.066 506.711C307.005 506.175 307.029 505.649 307.117 505.142L203.4 476.708ZM219.601 1013.89C220.312 1012.04 222.001 1010.63 224.11 1010.39C225.044 1010.29 225.951 1010.42 226.767 1010.75L252.724 960.164L214.291 1012.4L219.601 1013.89ZM157.839 1087.42L212.608 1012.98L78.467 975.349C78.1301 976.225 77.5763 977 76.8629 977.599L152.328 1087.33C152.949 1086.98 153.645 1086.75 154.397 1086.66C155.645 1086.52 156.84 1086.82 157.839 1087.42ZM40.9195 549.057L29.7744 495.307C29.7744 495.307 29.7744 495.307 29.7719 495.307C27.0338 495.618 24.5439 493.848 23.8632 491.253L-65.4848 506.288C-65.437 506.941 -65.5002 507.578 -65.6683 508.176L40.9195 549.057ZM-8.53252 114.182L3.54926 124.638C4.38912 123.831 5.4863 123.277 6.7323 123.136C7.20795 123.082 7.67562 123.097 8.12708 123.163L26.5771 46.3453C26.4609 46.3194 26.344 46.2959 26.2322 46.2633L-8.53252 114.182ZM6.24028 136.318L-20.351 263.062L-7.82456 275.516C-7.02634 274.845 -6.02982 274.393 -4.91915 274.268C-4.74073 274.248 -4.56493 274.237 -4.39105 274.234L-2.56284 250.519L6.24028 136.318ZM-0.392604 275.88L79.666 210.567L10.5966 133.009C9.84769 133.565 8.94768 133.941 7.95582 134.053C7.77734 134.073 7.60221 134.081 7.42831 134.085L3.01217 191.372L-3.38288 274.315C-2.23228 274.51 -1.18928 275.068 -0.392604 275.88ZM-9.00721 115.112L-60.683 216.067L3.60801 132.615C2.6808 131.752 2.04406 130.568 1.89177 129.21C1.73528 127.808 2.12493 126.471 2.88687 125.408L-9.00721 115.112ZM-59.4132 224.23L-21.206 262.213L5.72646 133.844C5.25977 133.698 4.81686 133.493 4.40921 133.234L-59.9069 216.722C-58.9797 217.584 -58.3423 218.766 -58.19 220.124C-58.0181 221.664 -58.5006 223.123 -59.4132 224.23ZM-60.755 225.403L-29.2791 288.596C-28.8463 288.429 -28.3916 288.306 -27.908 288.252C-27.4889 288.204 -27.0739 288.211 -26.6725 288.258L-21.4542 263.393L-60.1258 224.953C-60.3221 225.118 -60.5346 225.266 -60.755 225.403ZM-9.23535 282.131C-9.50225 281.582 -9.6854 280.984 -9.75727 280.343C-9.9298 278.805 -9.44658 277.344 -8.53641 276.236L-20.5973 264.245L-25.6793 288.463C-24.5608 288.808 -23.5871 289.507 -22.8932 290.439L-9.23535 282.131ZM-0.840082 283.976L39.37 343.808C39.9782 343.475 40.6569 343.25 41.3892 343.168C42.4703 343.045 43.5108 343.251 44.4206 343.699L61.5256 315.739L0.261043 282.762C-0.0422154 283.219 -0.413364 283.626 -0.840082 283.976ZM47.2976 350.03C47.0375 351.01 46.5108 351.89 45.7933 352.582L101.419 422.516L156.191 371.997C155.706 371.284 155.38 370.446 155.277 369.529C155.225 369.058 155.241 368.598 155.304 368.15L47.2976 350.03ZM292.404 767.103L254.016 802.733L265.063 820.757C265.461 820.612 265.879 820.506 266.317 820.458C267.217 820.355 268.088 820.481 268.877 820.782L293.246 767.649C292.95 767.494 292.668 767.311 292.404 767.103ZM461.367 856.182C460.711 856.255 460.072 856.205 459.466 856.058L434.439 920.05L469.325 930.681C469.968 929.113 471.317 927.892 473.021 927.448L461.367 856.182ZM455.608 852.607L324.983 884.768C324.994 884.834 325.009 884.895 325.017 884.963C325.082 885.553 325.05 886.132 324.935 886.687L433.467 919.755L458.507 855.728C457.181 855.128 456.12 854.014 455.608 852.607ZM34.3189 491.698L111.15 527.583L125.13 460.416C123.65 459.962 122.417 458.891 121.762 457.472L34.4734 488.5C34.5332 488.737 34.5855 488.982 34.6125 489.233C34.7088 490.096 34.5949 490.932 34.3189 491.698ZM112.093 528.025L171.338 555.696C171.73 555.399 172.161 555.158 172.627 554.973L128.586 460.331C128.194 460.473 127.781 460.575 127.352 460.623C126.933 460.671 126.522 460.666 126.121 460.619L112.093 528.025ZM111.88 529.044L103.802 567.849C105.463 568.397 106.802 569.721 107.328 571.445L112.813 570.28L169.459 558.258C169.697 557.584 170.065 556.966 170.534 556.438L111.88 529.044ZM106.839 575.792L140.491 600.228L169.846 562.782C169.494 562.158 169.26 561.455 169.175 560.699C169.125 560.24 169.138 559.789 169.195 559.35L112.999 571.277L107.537 572.436C107.538 572.441 107.54 572.444 107.539 572.447C107.674 573.656 107.403 574.812 106.839 575.792ZM33.1437 493.619L98.9422 568.566C99.6689 568.054 100.531 567.713 101.477 567.604C101.934 567.553 102.381 567.566 102.816 567.624L110.937 528.602L33.8892 492.617C33.6797 492.978 33.432 493.316 33.1437 493.619ZM73.239 686.019L139.866 601.027L106.258 576.621C105.385 577.647 104.141 578.358 102.698 578.52C102.204 578.577 101.721 578.56 101.25 578.487L72.185 685.492C72.5566 685.631 72.911 685.805 73.239 686.019ZM74.0358 686.645C74.3657 686.959 74.6556 687.315 74.9001 687.703L115.989 666.772L179.503 634.419C179.361 634.018 179.255 633.602 179.206 633.16C179.079 632.037 179.302 630.952 179.788 630.02L140.684 601.624L74.0358 686.645ZM76.8774 969.182L144.337 904.625L119.618 893.406C118.779 894.876 117.28 895.942 115.469 896.147C114.55 896.25 113.66 896.119 112.854 895.801L98.8544 923.646L76.2022 968.7C76.4386 968.844 76.6655 969.005 76.8774 969.182ZM225.798 767.413L168.284 831.716L192.376 851.771C193.192 851.042 194.232 850.547 195.402 850.414C196.08 850.338 196.744 850.396 197.369 850.555L226.754 767.982C226.417 767.823 226.098 767.635 225.798 767.413ZM167.606 832.474L118.878 886.955C119.187 887.289 119.459 887.662 119.681 888.067L190.79 857.562C190.68 857.218 190.603 856.861 190.561 856.49C190.394 855.01 190.836 853.603 191.682 852.512L167.606 832.474ZM145.124 903.87L191.715 859.283C191.527 859.046 191.354 858.792 191.206 858.524L145.486 878.117L120.08 889.001C120.191 889.343 120.268 889.7 120.31 890.071C120.404 890.915 120.297 891.732 120.036 892.481L145.124 903.87ZM146.12 904.321L251.295 952.069C251.67 951.411 252.178 950.835 252.788 950.379L198.412 860.804C197.864 861.072 197.266 861.258 196.622 861.333C195.036 861.511 193.533 860.988 192.415 860.016L146.12 904.321ZM256.009 949.292L262.5 872.38L201.199 857.642C200.838 858.696 200.167 859.616 199.279 860.278L253.653 949.852C254.201 949.584 254.801 949.399 255.442 949.326C255.634 949.304 255.823 949.294 256.009 949.292ZM262.587 871.359L265.964 831.322C264.228 831.012 262.745 829.875 261.985 828.29L201.394 854.833C201.421 854.975 201.447 855.113 201.464 855.256C201.516 855.735 201.501 856.201 201.435 856.656L262.587 871.359ZM264.142 821.19L253.258 803.438L200.36 852.53C200.667 852.93 200.92 853.373 201.109 853.851L261.636 827.336C261.567 827.076 261.51 826.808 261.479 826.532C261.23 824.313 262.341 822.259 264.142 821.19ZM252.719 802.556L231.487 767.924C230.931 768.198 230.325 768.387 229.673 768.462C229.001 768.536 228.345 768.481 227.724 768.325L198.581 851.019C198.976 851.227 199.339 851.487 199.67 851.786L252.719 802.556ZM182.065 637.386L135.388 719.755L224.308 760.278C224.878 759.286 225.743 758.481 226.805 758L209.954 709.015L185.509 637.963C185.429 637.975 185.349 637.993 185.267 638.003C184.119 638.133 183.014 637.895 182.065 637.386ZM107.652 777.238C107.676 778.418 107.321 779.53 106.689 780.45L167.503 831.069L225.044 766.736C224.38 766.023 223.901 765.13 223.693 764.119L107.652 777.238ZM103.281 782.723L114.754 885.199C116.004 885.171 117.175 885.574 118.124 886.277L166.829 831.825L106.042 781.229C105.308 781.967 104.36 782.501 103.281 782.723ZM113.239 885.444L87.9562 877.504L74.6454 968.054C74.8675 968.106 75.0831 968.171 75.2924 968.251L101.742 915.647L111.952 895.344C110.583 894.486 109.601 893.037 109.407 891.305C109.11 888.639 110.77 886.207 113.239 885.444ZM250.568 954.829C250.565 954.188 250.675 953.569 250.875 952.99L145.33 905.078L77.5884 969.903C78.128 970.56 78.5229 971.345 78.7106 972.22L250.568 954.829ZM259.374 950.417L315.497 889.261C314.753 888.439 314.247 887.385 314.112 886.196C314.059 885.718 314.076 885.252 314.141 884.797L263.497 872.621L257.019 949.379C257.887 949.533 258.691 949.895 259.374 950.417ZM315.573 881.821L270.161 830.347C269.415 830.893 268.524 831.263 267.54 831.375C267.352 831.395 267.162 831.407 266.973 831.409L263.582 871.597L314.379 883.811C314.634 883.066 315.041 882.387 315.573 881.821ZM290.38 763.723L234.523 763.53C234.372 765.088 233.562 766.48 232.35 767.394L253.476 801.853L291.666 766.407C291.014 765.67 290.56 764.753 290.38 763.723ZM291.669 759.147L187.496 637.238C187.183 637.427 186.849 637.589 186.495 637.715L190.07 648.11L227.766 757.672C227.991 757.616 228.217 757.572 228.452 757.546C231.463 757.205 234.177 759.371 234.515 762.386C234.519 762.429 234.518 762.471 234.522 762.514L290.295 762.708C290.31 761.361 290.821 760.109 291.669 759.147ZM183.001 627.311L174.97 565.557C173.194 565.672 171.541 564.924 170.452 563.651L141.312 600.826L180.336 629.166C181.006 628.309 181.924 627.652 183.001 627.311ZM122.945 451.208L101.305 424L33.5181 486.52C33.7614 486.834 33.9687 487.176 34.138 487.541L121.429 456.516C121.367 456.276 121.316 456.034 121.29 455.781C121.089 454.015 121.757 452.354 122.945 451.208ZM42.0091 354.117L30.1608 484.447C31.1697 484.633 32.0895 485.103 32.832 485.774L100.671 423.206L45.0025 353.216C44.3055 353.675 43.4963 353.985 42.6103 354.084C42.4078 354.106 42.2081 354.118 42.0091 354.117ZM42.0408 549.489L97.1742 570.635C97.4312 570.116 97.7662 569.639 98.1681 569.224L32.3829 494.287C31.9003 494.641 31.357 494.918 30.7661 495.098L42.0408 549.489ZM42.2859 550.668L70.1656 685.146C70.5213 685.139 70.8703 685.166 71.2107 685.226L100.268 578.242C98.3472 577.565 96.8795 575.843 96.6361 573.68C96.5558 572.953 96.6227 572.244 96.8079 571.582L42.2859 550.668ZM75.4402 692.436L134.463 719.334L181.219 636.826C180.708 636.414 180.272 635.908 179.935 635.338L75.3599 688.609C75.5346 689.052 75.6604 689.521 75.7158 690.019C75.8118 690.864 75.7025 691.682 75.4402 692.436ZM105.304 772.844C106.424 773.625 107.248 774.814 107.539 776.231L223.58 763.112C223.567 762.447 223.679 761.803 223.887 761.202L134.886 720.641L105.304 772.844ZM101.877 782.828L88.1081 876.486L113.659 884.514L102.275 782.837C102.141 782.84 102.009 782.834 101.877 782.828ZM86.9794 877.197L29.5871 859.17L71.8447 968.11C72.1341 968.027 72.4294 967.962 72.737 967.929C73.0429 967.892 73.3445 967.892 73.6421 967.906L86.9794 877.197ZM213.251 1012.11L252.409 958.885C251.537 958.108 250.91 957.055 250.672 955.839L79.0874 973.2L78.8286 973.462C78.8239 973.773 78.7977 974.075 78.7441 974.373L213.251 1012.11ZM293.907 1037.51L273.338 993.209L229.866 1013.96C230.012 1014.36 230.121 1014.79 230.171 1015.23C230.249 1015.93 230.187 1016.61 230.018 1017.25L291.722 1039.9C292.195 1038.9 292.953 1038.07 293.907 1037.51ZM272.912 992.292L257.894 959.953C257.505 960.093 257.095 960.195 256.665 960.243C255.73 960.349 254.824 960.212 254.008 959.883L227.665 1011.22C228.383 1011.68 228.989 1012.3 229.43 1013.04L272.912 992.292ZM273.826 991.855L325.393 967.245C325.276 966.889 325.191 966.514 325.146 966.124C325.103 965.745 325.102 965.369 325.137 965.003L261.386 956.045C261.04 957.512 260.105 958.771 258.815 959.528L273.826 991.855ZM410.659 964.825C410.76 964.007 411.04 963.236 411.47 962.561L323.441 889.457C322.594 890.309 321.463 890.893 320.177 891.037C318.715 891.202 317.327 890.775 316.243 889.949L260.121 951.102C260.865 951.926 261.372 952.978 261.506 954.169C261.524 954.329 261.53 954.491 261.535 954.649L410.659 964.825ZM328.964 960.267L270.17 956.255L325.323 964.006C325.825 962.25 327.182 960.824 328.964 960.267ZM412.091 961.759C412.952 960.832 414.132 960.196 415.486 960.041C416.235 959.958 416.963 960.028 417.641 960.228L433.098 920.701L324.642 887.656C324.492 888.017 324.307 888.358 324.088 888.675L412.091 961.759ZM420.688 962.498L469.393 935.002C469.169 934.498 469.015 933.95 468.949 933.373C468.885 932.781 468.917 932.202 469.031 931.65L434.07 920.998L418.58 960.603C419.434 961.036 420.163 961.691 420.688 962.498ZM477.428 937.33L517.093 1011.3L462.414 856.307L474.019 927.285C476.937 927.077 479.525 929.204 479.852 932.139C480.089 934.258 479.09 936.227 477.428 937.33ZM519.543 1011.88L525.593 893.661L465.107 854.06C464.614 854.705 463.98 855.236 463.244 855.614L518.43 1012.04C518.668 1011.98 518.91 1011.93 519.159 1011.9C519.289 1011.89 519.416 1011.88 519.543 1011.88ZM455.281 850.54L333.651 834.97L321.469 880.432C322.986 880.993 324.206 882.21 324.746 883.783L455.355 851.626C455.338 851.532 455.316 851.437 455.306 851.339C455.276 851.069 455.274 850.803 455.281 850.54ZM332.637 834.84L272.279 827.111C272.061 828.082 271.588 828.965 270.921 829.674L316.332 881.148C317.078 880.602 317.969 880.232 318.953 880.12C319.48 880.062 319.996 880.082 320.492 880.168L332.637 834.84ZM332.903 833.85L362.417 723.7C361.914 723.512 361.448 723.256 361.025 722.938L270.974 822.21C271.732 823.038 272.247 824.1 272.382 825.299C272.411 825.571 272.415 825.84 272.407 826.106L332.903 833.85ZM360.006 721.938L300.641 760.239C300.943 760.821 301.151 761.465 301.228 762.157C301.565 765.172 299.398 767.891 296.387 768.231C295.622 768.317 294.877 768.241 294.186 768.032L269.787 821.23C269.938 821.323 270.084 821.423 270.226 821.529L360.275 722.257C360.182 722.153 360.092 722.048 360.006 721.938ZM294.667 757.396L261.793 580.731C260.008 580.898 258.338 580.186 257.219 578.944L189.335 629.68C189.741 630.345 190.015 631.103 190.108 631.929C190.313 633.764 189.587 635.485 188.313 636.632L292.406 758.449C293.053 757.943 293.818 757.573 294.667 757.396ZM255.825 574.824L245.562 573.025L190.226 627.75L256.614 578.13C256.208 577.465 255.931 576.709 255.84 575.884C255.8 575.524 255.798 575.171 255.825 574.824ZM244.338 572.812L179.916 561.525C179.403 563.401 177.917 564.908 175.971 565.4L183.995 627.094C184.011 627.093 184.028 627.087 184.046 627.087C185.601 626.91 187.074 627.407 188.186 628.343L244.338 572.812ZM245.222 571.936L308.277 509.577C308.022 509.267 307.802 508.925 307.617 508.557L179.895 558.563C179.976 558.855 180.043 559.154 180.077 559.465C180.117 559.825 180.12 560.178 180.092 560.525L245.222 571.936ZM202.421 476.438L131.868 457.098C131.425 458.273 130.592 459.268 129.504 459.906L173.613 554.688C173.748 554.664 173.878 554.639 174.016 554.623C174.664 554.55 175.298 554.599 175.9 554.742L202.421 476.438ZM158.107 373.736C157.641 373.48 157.212 373.158 156.839 372.779L102.05 423.31L123.738 450.575C124.435 450.116 125.244 449.808 126.128 449.706C126.868 449.624 127.592 449.691 128.265 449.888L158.107 373.736ZM155.814 366.491L62.4164 316.219L45.2822 344.229C46.4524 345.105 47.2739 346.44 47.4508 348.01C47.4897 348.354 47.49 348.695 47.4665 349.028L155.537 367.16C155.614 366.931 155.706 366.706 155.814 366.491ZM104.355 245.726C103.59 245.175 102.969 244.431 102.571 243.552L82.1403 250.57L1.02022 278.432C1.07357 278.654 1.11816 278.878 1.14485 279.111C1.25404 280.083 1.09843 281.026 0.739469 281.866L62.0539 314.872L104.355 245.726ZM103.618 237.462L80.3408 211.325L0.246135 276.665C0.416787 276.919 0.569974 277.188 0.695943 277.471L102.241 242.592C102.186 242.365 102.139 242.132 102.112 241.891C101.923 240.2 102.522 238.599 103.618 237.462ZM146.68 155.899C146.335 155.279 146.104 154.585 146.022 153.836C145.951 153.202 145.996 152.584 146.129 151.998L12.6447 129.983C12.4126 130.869 11.9658 131.675 11.3538 132.336L80.4533 209.928L146.68 155.899ZM71.1979 80.2774L11.9861 125.672C12.4123 126.351 12.6992 127.129 12.7964 127.979C12.8341 128.317 12.8357 128.654 12.8129 128.983L146.451 151.021C146.727 150.392 147.116 149.821 147.6 149.337L71.1979 80.2774ZM70.4317 79.5865L31.8098 44.6762C30.946 45.6312 29.7482 46.2868 28.3699 46.4424C28.1047 46.4737 27.8466 46.4781 27.5871 46.4689L9.11237 123.398C9.97936 123.694 10.7548 124.203 11.3704 124.87L70.4317 79.5865ZM23.4855 44.4249L-39.1912 81.6729C-38.9381 82.2054 -38.7638 82.7875 -38.6947 83.4098C-38.5358 84.8121 -38.9279 86.1481 -39.6874 87.2124L-9.31911 113.498L25.2873 45.8868C24.5877 45.534 23.9749 45.0338 23.4855 44.4249ZM-62.3702 215.4C-62.1065 215.463 -61.8493 215.54 -61.6011 215.64L-9.79628 114.428L-40.3498 87.9825C-41.1896 88.7891 -42.2868 89.343 -43.5328 89.4843C-43.8324 89.5169 -44.1242 89.5201 -44.4145 89.5079L-62.3702 215.4ZM38.0332 344.836C38.1895 344.673 38.3592 344.519 38.5343 344.374L-1.67894 284.544C-2.2871 284.877 -2.96588 285.102 -3.69569 285.185C-5.70897 285.412 -7.58384 284.516 -8.71043 282.999L-22.3683 291.306C-22.1038 291.855 -21.9182 292.453 -21.8463 293.095C-21.6989 294.412 -22.0295 295.676 -22.7013 296.706L38.0332 344.836ZM-67.3616 502.543C-66.5447 503.25 -65.9382 504.195 -65.6493 505.288L23.6986 490.254C23.4817 487.327 25.6102 484.724 28.5509 484.391C28.7532 484.369 28.9524 484.359 29.152 484.357L41.0003 354.028C40.3686 353.911 39.775 353.681 39.2357 353.366L-67.3616 502.543ZM68.7207 683.173L41.1639 550.238L-66.0346 509.122C-66.3203 509.699 -66.707 510.223 -67.1722 510.668L68.7207 683.173ZM100.759 772.046C101.018 771.977 101.285 771.92 101.558 771.888C102.574 771.774 103.554 771.95 104.424 772.343L133.961 720.22L75.0203 693.358C74.4701 694.316 73.6417 695.099 72.6256 695.585L100.759 772.046ZM29.6401 858.122L87.129 876.179L100.874 782.679C100.143 782.502 99.4667 782.179 98.8755 781.734L29.6401 858.122ZM72.2076 978.756C69.9582 978.28 68.1677 976.414 67.8966 974.002C67.6336 971.648 68.9016 969.479 70.9025 968.477L29.0612 860.615L15.2244 1033.01C16.1655 1033.17 17.0325 1033.58 17.7525 1034.17L72.2076 978.756ZM220.659 1019.54C219.911 1018.72 219.403 1017.66 219.268 1016.47C219.206 1015.92 219.229 1015.38 219.326 1014.86L213.651 1013.27L161.065 1084.74L220.659 1019.54ZM327.926 970.302C327.042 969.806 326.3 969.074 325.802 968.174L274.253 992.775L294.826 1037.08C295.217 1036.94 295.627 1036.84 296.057 1036.79C296.881 1036.7 297.68 1036.8 298.416 1037.05L327.926 970.302ZM399.985 965.115L332.927 960.539C334.566 961.309 335.782 962.871 336.032 964.794L399.985 965.115ZM643.66 975.113C643.611 974.903 643.569 974.687 643.544 974.468C643.418 973.326 643.649 972.228 644.149 971.283L526.574 894.302L520.554 1011.93C522.424 1012.19 524.029 1013.41 524.789 1015.13L643.66 975.113ZM532.973 824.644C532.236 825.177 531.357 825.534 530.389 825.642C530.289 825.655 530.189 825.657 530.088 825.661L526.633 893.131L644.704 970.434C644.873 970.222 645.059 970.028 645.255 969.842L532.973 824.644ZM465.991 849.071C466.093 849.403 466.171 849.749 466.211 850.106C466.334 851.213 466.117 852.278 465.649 853.203L525.653 892.488L529.075 825.629C527.248 825.394 525.673 824.25 524.865 822.619L465.991 849.071ZM367.135 723.26C366.482 723.652 365.737 723.917 364.932 724.008C364.404 724.069 363.891 724.047 363.395 723.964L333.916 833.98L455.407 849.534C455.675 848.338 456.329 847.275 457.254 846.504L367.135 723.26ZM264.137 570.573L308.189 511.089L246.446 572.151L256.001 573.824C256.576 571.718 258.381 570.068 260.679 569.807C261.935 569.666 263.134 569.966 264.137 570.573ZM225.279 425.394C224.459 426.127 223.416 426.625 222.244 426.757C221.594 426.832 220.961 426.781 220.36 426.638L203.726 475.746L307.387 504.165C307.583 503.65 307.849 503.173 308.18 502.742L225.279 425.394ZM164.536 372.855C163.696 373.672 162.593 374.229 161.342 374.369C160.539 374.461 159.76 374.368 159.038 374.135L129.206 450.26C130.298 450.81 131.189 451.721 131.714 452.851L216.321 422.656C216.26 422.416 216.211 422.169 216.181 421.917C216.024 420.518 216.412 419.189 217.166 418.125L164.536 372.855ZM109.305 246.48C108.945 246.602 108.565 246.689 108.173 246.733C107.125 246.851 106.115 246.66 105.226 246.24L62.9479 315.35L156.344 365.625C156.846 364.956 157.497 364.404 158.256 364.017L109.305 246.48ZM148.501 157.839C148.034 157.538 147.614 157.166 147.258 156.737L81.1287 210.683L104.385 236.801C105.12 236.277 105.993 235.925 106.952 235.817C107.895 235.71 108.812 235.851 109.634 236.187L148.501 157.839ZM33.2037 41.6163C33.1099 42.4259 32.8395 43.1908 32.4232 43.8641L71.2494 78.9603L111.895 47.7972C111.548 47.1766 111.316 46.479 111.231 45.7268C111.196 45.4101 111.196 45.0978 111.213 44.7875L33.2037 41.6163Z"
          fill="#53B5B0" fill-opacity="0.18"/>
</svg>
